<svg width="16" height="16" viewBox="0 0 16 16" fill="none" xmlns="http://www.w3.org/2000/svg">
<g clip-path="url(#clip0_3_4)">
<path d="M15.5265 2.73247C16.1512 2.10776 16.1512 1.09324 15.5265 0.468531C14.9018 -0.156177 13.8872 -0.156177 13.2625 0.468531L8 5.73606L2.73247 0.473528C2.10776 -0.15118 1.09324 -0.15118 0.468531 0.473528C-0.156177 1.09823 -0.156177 2.11276 0.468531 2.73747L5.73606 8L0.473528 13.2676C-0.15118 13.8923 -0.15118 14.9068 0.473528 15.5315C1.09823 16.1562 2.11276 16.1562 2.73747 15.5315L8 10.2639L13.2676 15.5265C13.8923 16.1512 14.9068 16.1512 15.5315 15.5265C16.1562 14.9018 16.1562 13.8872 15.5315 13.2625L10.2639 8L15.5265 2.73247Z" fill="white"/>
</g>
<defs>
<clipPath id="clip0_3_4">
<rect width="16" height="16" fill="white"/>
</clipPath>
</defs>
</svg>
